<?xml version="1.0" encoding="iso-8859-1"?>
<!-- Generator: Adobe Illustrator 22.0.1, SVG Export Plug-In . SVG Version: 6.00 Build 0)  -->
<svg version="1.1" xmlns="http://www.w3.org/2000/svg" xmlns:xlink="http://www.w3.org/1999/xlink" x="0px" y="0px"
	 viewBox="0 0 1109.156 402.462" style="enable-background:new 0 0 1109.156 402.462;" xml:space="preserve">
<g id="Capa_1">
	<path style="fill:#FDCC10;" d="M369.014,300.633c-9.04-0.91-2.065-7.606-2.065-7.606s-4.145,3.431-38.419,15.045
		c-29.91,10.126-36.038,2.768-27.299-6.255c11.448-11.793,23.921-26.328,23.921-26.328s-21.486,20.059-73.581,39.03
		c-35.41,12.895-51.877,10.002-29.023-7.109c39.089-29.235,59.672-58.814,59.672-58.814c-31.32,30.337-60.452,42.103-98.692,51.925
		c-28.735,7.384-76.139,3.968-29.966-15.802c70.121-30.034,111.794-64.889,111.794-64.889
		c-24.276,18.171-75.127,31.948-120.629,35.269c-40.265,2.934-70.189-14.398-36.859-22.098
		c90.267-20.872,145.699-47.269,145.699-47.269s-38.87,17.744-124.254,14.685c-62.612-2.245-93.836-38.107-51.507-36.605
		c79.777,2.824,132.925-6.765,132.925-6.765c-16.809,0.606-43.629-1.501-82.197-19.673c-20.515-9.657-35.629-19.591-38.049-29.648
		c-2.024-8.487,1.135-13.887,23.401-5.703c94.274,34.621,265.22,16.036,281.768,14.121V0.763H92.387
		c-49.646,0-90.28,40.932-90.28,90.942v218.117c0,50.009,40.633,90.941,90.28,90.941h303.269V293.744
		C381.815,298.966,370.86,300.825,369.014,300.633"/>
</g>
<g id="Capa_2">
	<g>
		<path style="fill:#FFFFFF;" d="M1007.12,266.239v11.978c0,15.201,0.443,26.599,1.351,34.193
			c0.899,7.601,2.763,13.137,5.603,16.615c2.832,3.477,7.206,5.217,13.135,5.217c7.979,0,13.457-3.093,16.419-9.274
			c2.958-6.181,4.57-16.482,4.83-30.91l45.978,2.704c0.256,2.065,0.386,4.898,0.386,8.501c0,21.896-5.99,38.25-17.965,49.068
			c-11.975,10.818-28.916,16.228-50.808,16.228c-26.271,0-44.692-8.24-55.252-24.729c-10.564-16.48-15.841-41.979-15.841-76.499
			v-41.343c0-35.544,5.473-61.491,16.423-77.852c10.946-16.354,29.685-24.535,56.216-24.535c18.287,0,32.321,3.351,42.112,10.047
			c9.786,6.7,16.675,17.131,20.672,31.294c3.992,14.169,5.99,33.748,5.99,58.729v40.568H1007.12z M1013.879,166.558
			c-2.702,3.349-4.509,8.824-5.408,16.419c-0.908,7.601-1.351,19.125-1.351,34.58v17.001h39.019v-17.001
			c0-15.194-0.517-26.72-1.542-34.58c-1.034-7.853-2.897-13.389-5.603-16.612c-2.706-3.219-6.893-4.83-12.558-4.83
			C1020.768,161.535,1016.585,163.213,1013.879,166.558z"/>
		<path style="fill:#FFFFFF;" d="M750.183,130.062v236.839h-41.727l-4.638-28.977h-1.157c-11.339,21.896-28.338,32.84-51.001,32.84
			c-15.714,0-27.305-5.148-34.772-15.454c-7.474-10.299-11.204-26.399-11.204-48.295V130.062h53.318v173.863
			c0,10.564,1.159,18.098,3.476,22.602c2.319,4.51,6.182,6.762,11.591,6.762c4.638,0,9.081-1.414,13.33-4.252
			c4.252-2.831,7.402-6.434,9.467-10.818V130.062H750.183z"/>
		<path style="fill:#FFFFFF;" d="M621.58,85.63h-52.931v281.271H516.49V85.63h-52.931V42.743h158.02V85.63z"/>
		<path style="fill:#FFFFFF;" d="M926.646,167.921c-3.225-14.934-8.44-25.752-15.649-32.453
			c-7.213-6.694-17.132-10.045-29.75-10.045c-9.791,0-18.932,2.771-27.431,8.306c-8.501,5.541-15.069,12.817-19.705,21.831h-0.391
			l0.005-124.797H782.34v336.135h44.043l5.409-22.408h1.16c4.117,7.986,10.298,14.294,18.545,18.932
			c8.24,4.636,17.386,6.953,27.433,6.953c18.025,0,31.294-8.305,39.794-24.919c8.499-16.615,12.75-42.561,12.75-77.852v-37.477
			C931.475,203.601,929.862,182.865,926.646,167.921z M877.771,264.527c0,17.26-0.712,30.783-2.126,40.567
			c-1.418,9.793-3.802,16.748-7.148,20.865c-3.35,4.124-7.86,6.182-13.521,6.182c-4.384,0-8.44-1.027-12.171-3.092
			c-3.737-2.059-6.761-5.149-9.08-9.272V185.322c1.8-6.434,4.89-11.716,9.273-15.84c4.376-4.117,9.139-6.182,14.294-6.182
			c5.409,0,9.593,2.126,12.557,6.375c2.958,4.249,5.022,11.398,6.182,21.444c1.16,10.045,1.739,24.339,1.739,42.884V264.527z"/>
	</g>
</g>
<g id="Capa_3" style="display:none;">
	<g style="display:inline;">
		<path style="fill:#FDCC10;" d="M698.925,0.763H395.656v115.382v177.598h0v107.019h0h303.269c49.647,0,90.28-40.932,90.28-90.941
			V91.705C789.204,41.695,748.571,0.763,698.925,0.763z M477.449,293.37h-28.38V140.325h-28.801V116.99h85.982v23.335h-28.801
			V293.37z M576.226,293.37h-22.704l-2.524-15.767h-0.63c-6.17,11.914-15.419,17.869-27.75,17.869c-8.55,0-14.857-2.801-18.92-8.409
			c-4.067-5.604-6.096-14.364-6.096-26.278v-96.283h29.011v94.602c0,5.748,0.631,9.848,1.892,12.298
			c1.262,2.454,3.364,3.679,6.307,3.679c2.524,0,4.941-0.769,7.253-2.313c2.313-1.541,4.028-3.501,5.151-5.886V164.502h29.011
			V293.37z M674.87,239.341c0,19.203-2.313,33.32-6.938,42.361c-4.625,9.039-11.845,13.559-21.653,13.559
			c-5.467,0-10.443-1.261-14.927-3.783c-4.487-2.524-7.851-5.956-10.091-10.301h-0.631l-2.943,12.193h-23.965V110.472h27.96
			l-0.003,67.904h0.213c2.522-4.904,6.096-8.863,10.722-11.878c4.624-3.012,9.598-4.519,14.926-4.519
			c6.865,0,12.262,1.823,16.187,5.466c3.922,3.646,6.76,9.532,8.515,17.658c1.75,8.131,2.628,19.414,2.628,33.847V239.341z
			 M764.592,238.598h-48.562v6.517c0,8.271,0.241,14.473,0.735,18.605c0.489,4.136,1.503,7.148,3.049,9.04
			c1.541,1.892,3.921,2.839,7.147,2.839c4.342,0,7.322-1.683,8.934-5.046c1.61-3.363,2.486-8.968,2.628-16.818l25.017,1.471
			c0.139,1.124,0.21,2.665,0.21,4.625c0,11.914-3.259,20.813-9.775,26.699s-15.734,8.83-27.646,8.83
			c-14.294,0-24.318-4.484-30.063-13.455c-5.748-8.967-8.62-22.842-8.62-41.624v-22.496c0-19.34,2.978-33.458,8.936-42.361
			c5.956-8.898,16.152-13.35,30.588-13.35c9.95,0,17.587,1.823,22.914,5.467c5.325,3.646,9.073,9.322,11.248,17.028
			c2.172,7.71,3.259,18.363,3.259,31.955V238.598z"/>
		<path style="fill:#FDCC10;" d="M733.373,184.255c-1.472-1.751-3.751-2.628-6.833-2.628c-3.084,0-5.36,0.913-6.833,2.733
			c-1.47,1.822-2.453,4.801-2.943,8.934c-0.494,4.136-0.735,10.406-0.735,18.816v9.251h21.231v-9.251
			c0-8.267-0.281-14.539-0.839-18.816C735.859,189.021,734.845,186.008,733.373,184.255z"/>
		<path style="fill:#FDCC10;" d="M641.338,186.056c-1.613-2.312-3.889-3.469-6.832-3.469c-2.805,0-5.397,1.124-7.778,3.364
			c-2.385,2.244-4.067,5.118-5.046,8.619v73.159c1.262,2.243,2.907,3.925,4.941,5.045c2.03,1.124,4.237,1.682,6.622,1.682
			c3.08,0,5.534-1.12,7.357-3.364c1.821-2.24,3.118-6.024,3.889-11.353c0.769-5.323,1.157-12.682,1.157-22.073v-16.608
			c0-10.091-0.315-17.869-0.946-23.334C644.071,192.258,642.948,188.368,641.338,186.056z"/>
	</g>
</g>
</svg>
